<svg xmlns="http://www.w3.org/2000/svg" version="1.1" xmlns:xlink="http://www.w3.org/1999/xlink" width="1500" height="1500" viewBox="0 0 1500 1500"><rect width="1500" height="1500" x="0" y="0" id="background" stroke="transparent" fill="#111111"></rect><svg xml:space="preserve" width="1000" height="1000" data-version="2" data-id="lg_kmKGT2ULAvOwtRkGwm" viewBox="0 0 557 425" x="250" y="250"><rect width="557" height="425" fill="transparent"></rect><path fill="#ff851b" d="M89.083 352.068q0 7.01-3.08 12.66-3.07 5.65-8.68 9.4-5.62 3.76-13.34 5.19-2.43.35-4.58.82-2.14.46-4.32.79-2.18.32-4.76.32-4.5 0-8.68-.65-4.19-.64-7.73-1.82-3.53-1.18-6.11-2.82l.57-5.3q2.15 1.51 5.22 2.58 3.08 1.07 6.69 1.61 3.61.53 7.4.53 11.3 0 17.69-5.97 6.4-5.97 6.4-17.26 0-8.37-3.75-14.84-3.75-6.47-10.65-10.15-6.9-3.69-16.34-3.69h-8.08v84.52q0 1.5.82 2.46.82.97 2.47 1.4l6.36.86q1.5.43 2.08 1.11.57.67.57 1.75 0 2.57-3.43 2.57H8.853q-1.78 0-2.64-.71-.86-.72-.86-1.86 0-2.15 2.72-2.86l4.72-.86q1.71-.43 2.64-1.4.93-.96.93-2.46v-79.8q0-1.57-.93-2.5-.93-.93-2.64-1.36l-4.72-.86q-2.72-.71-2.72-2.86 0-1.21.86-1.89.86-.68 2.64-.68h32.68q15.3 0 25.88 4.4 10.58 4.4 16.13 12.08 5.54 7.69 5.54 17.55m-37.25 26.75 16.44-2.01 19.88 30.75q1.28 2.07 2.86 3.25 1.57 1.18 4.29 1.75 2.43.65 3.21 1.29.79.64.79 1.72 0 1.14-.89 1.86-.9.71-2.68.71h-27.96q-3.5 0-3.5-2.57 0-.79.53-1.33.54-.53 1.61-.89l2.72-.5q1.64-.5 1.86-1.54.21-1.03-.86-2.82Z" paint-order="stroke"></path><rect width="93.95" height="100.1" x="-46.98" y="-50.05" fill="none" rx="0" ry="0" transform="translate(52.83 368.59)"></rect><path fill="#ff851b" d="M167.873 376.379q0 3.22-1.93 4.97-1.93 1.76-5.65 1.76h-45.69v-4.58h34.32q3.58 0 3.58-3.15 0-9.58-4.15-14.9-4.15-5.33-11.08-5.33-5.44 0-9.55 3.07-4.11 3.08-6.47 8.76-2.36 5.69-2.36 13.41 0 14.23 6.83 21.59 6.83 7.37 17.84 7.37 7.08 0 12.3-3.22 5.22-3.22 7.36-8.51.93-1.14 1.54-1.61.61-.46 1.32-.46.93 0 1.4.85.46.86.39 2.01-.43 5.86-4.25 10.72-3.83 4.86-10.19 7.76-6.37 2.9-14.52 2.9-10.01 0-17.69-4.22-7.69-4.22-11.94-11.84-4.26-7.61-4.26-17.91 0-10.44 4.15-18.62 4.15-8.19 11.83-12.94 7.69-4.76 18.27-4.76 8.79 0 15.19 3.43t9.91 9.48q3.5 6.04 3.5 13.97" paint-order="stroke"></path><rect width="62.88" height="70.29" x="-31.44" y="-35.15" fill="none" rx="0" ry="0" transform="translate(136.97 385.14)"></rect><path fill="#ff851b" d="M182.813 418.139q-1.64 0-2.21-.64-.58-.65-.58-1.72 0-.86.58-1.46.57-.61 1.86-1.04l3.36-.72q1.43-.43 2.14-1.35.72-.93.72-2.86v-81.87q0-1.58-.54-2.33t-1.75-.82l-4.86-.21q-1.22-.22-1.76-.72-.53-.5-.53-1.36 0-.93.61-1.5.6-.57 2.18-1.14l11.94-4.22q2.21-.79 3.61-1.14 1.39-.36 2.54-.36 1.78 0 2.71 1 .93 1 .93 2.72v91.95q0 1.93.72 2.86.71.92 2.07 1.35l3.22.72q2.22.79 2.22 2.43 0 2.43-3.29 2.43Zm16.16-31.03 30.6-25.03q2.51-2 2.26-3.57-.25-1.57-3.04-2.22l-2.93-.57q-1.29-.36-1.79-.89-.5-.54-.5-1.47 0-1.14.82-1.75.82-.61 2.32-.61h23.53q1.43 0 2.29.61.85.61.85 1.68 0 1.07-.71 1.75-.72.68-2.93 1.18-3.58.72-6.12 2.08-2.53 1.35-6.61 4.64l-36.54 29.46Zm22.45-15.16 25.24 35.75q2 2.72 3.43 3.72 1.43 1 4.29 1.64 1.51.5 2.15 1.22.64.71.64 1.64 0 1.01-.85 1.61-.86.61-2.29.61h-26.89q-1.28 0-2.07-.64-.79-.65-.79-1.65 0-.86.47-1.39.46-.54 1.68-.9l2.72-.57q2.35-.5 2.53-1.68.18-1.18-1.96-4.18l-18.66-26.38Z" paint-order="stroke"></path><rect width="77.93" height="105.46" x="-38.97" y="-52.73" fill="none" rx="0" ry="0" transform="translate(218.7 365.9)"></rect><path fill="#ff851b" d="m268.763 356.868-3.86-1.01q-1.79-.5-2.47-1.14-.68-.64-.68-1.5 0-1.07.79-1.65.78-.57 2.14-.57h4.58q1.86 0 3.04-.61 1.18-.6 2.03-2.25l5.79-10.44q1.08-1.64 2.11-2.36 1.04-.71 2.18-.71 1.22 0 1.9.75.68.75.68 2.11v62.99q0 4.93 2.04 7.54 2.03 2.61 5.68 2.61 2.57 0 4.04-.89 1.47-.89 2.32-2.04.86-1.14 1.58-2.07.71-.93 1.86-.93.85 0 1.35.57.51.57.51 1.86 0 3.07-2.22 5.86-2.22 2.79-6.11 4.58-3.9 1.79-8.91 1.79-7.86 0-12.51-4.08-4.65-4.07-4.65-12.37v-41.97q0-1.72-.71-2.61-.72-.89-2.5-1.46m11.51-.29v-5.58h22.52q1.43 0 2.18.54.75.53.75 1.61 0 1.5-1.5 2.46-1.5.97-4.72.97Z" paint-order="stroke"></path><rect width="44.62" height="84.73" x="-22.31" y="-42.37" fill="none" rx="0" ry="0" transform="translate(284.56 377.5)"></rect><path fill="#ff851b" d="M368.643 409.848v-4.65l-.36-.43v-40.83q0-1.64-.53-2.36-.54-.71-1.83-.85l-4.86-.15q-1.21-.21-1.71-.71t-.5-1.36q0-.93.6-1.54.61-.61 2.18-1.11l11.87-4.21q2.22-.79 3.65-1.15 1.43-.36 2.57-.36 1.79 0 2.69.97.89.96.89 2.68v54.56q0 1.93.71 2.89.72.97 2.15 1.32l3.22.72q1.28.36 1.89.96.61.61.61 1.54 0 1.07-.79 1.72-.78.64-2.43.64h-12.65q-3.29 0-5.33-2.18t-2.04-6.11m-44.97-11.16v-34.75q0-1.64-.54-2.36-.53-.71-1.82-.85l-4.86-.15q-1.22-.21-1.72-.71t-.5-1.36q0-.93.61-1.54t2.18-1.11l11.87-4.21q2.36-.86 3.75-1.18 1.4-.33 2.33-.33 1.93 0 2.82.97.89.96.89 2.68v42.61q0 7.15 3.51 10.69 3.5 3.54 9.22 3.54 3.58 0 7.65-1.82 4.08-1.82 8.8-5.83l3.07-2.57 2.72 2.79-3.08 2.71q-8.51 7.65-14.87 10.77-6.36 3.11-12.15 3.11-8.94 0-14.41-5.69-5.47-5.68-5.47-15.41" paint-order="stroke"></path><rect width="77.65" height="69.65" x="-38.83" y="-34.83" fill="none" rx="0" ry="0" transform="translate(353.56 385.46)"></rect><path fill="#ff851b" d="M424.053 316.398v92.87l-6.36 8.44q-2.36 1.15-3.5 1.57-1.15.43-2.29.43-1.29 0-2.11-.75-.82-.75-.82-2.32v-90.16q0-1.58-.54-2.33-.53-.75-1.75-.82l-4.86-.21q-1.22-.22-1.72-.72t-.5-1.36q0-.93.57-1.5.58-.57 2.22-1.14l11.87-4.22q2.29-.86 3.68-1.18 1.4-.32 2.4-.32 1.86 0 2.78 1 .93 1 .93 2.72m-3.5 54.34-2.29-3.72q5.51-8.3 12.77-12.91 7.25-4.61 15.76-4.61 8.44 0 15.05 4.33 6.62 4.32 10.44 11.9 3.83 7.58 3.83 17.38 0 11.29-4.47 19.52-4.47 8.22-12.01 12.69-7.55 4.47-16.77 4.47-8.51 0-15.16-4.15t-10.72-11.87l3.5-3.58q3.65 6.44 8.79 9.76 5.15 3.33 11.09 3.33 5.64 0 10.15-3.11 4.5-3.11 7.11-9.44 2.61-6.33 2.61-15.91 0-9.08-2.5-15.16-2.5-6.07-6.86-9.18-4.36-3.11-9.94-3.11-5.79 0-10.94 3.36-5.15 3.36-9.44 10.01" paint-order="stroke"></path><rect width="76.51" height="107.11" x="-38.26" y="-53.55" fill="none" rx="0" ry="0" transform="translate(438.36 366.73)"></rect><path fill="#ff851b" d="M550.613 376.379q0 3.22-1.93 4.97-1.93 1.76-5.65 1.76h-45.69v-4.58h34.32q3.58 0 3.58-3.15 0-9.58-4.15-14.9-4.15-5.33-11.08-5.33-5.44 0-9.55 3.07-4.11 3.08-6.47 8.76-2.36 5.69-2.36 13.41 0 14.23 6.83 21.59 6.83 7.37 17.84 7.37 7.08 0 12.3-3.22 5.22-3.22 7.36-8.51.93-1.14 1.54-1.61.61-.46 1.32-.46.93 0 1.4.85.46.86.39 2.01-.43 5.86-4.25 10.72-3.83 4.86-10.19 7.76-6.37 2.9-14.52 2.9-10.01 0-17.69-4.22-7.69-4.22-11.94-11.84-4.26-7.61-4.26-17.91 0-10.44 4.15-18.62 4.14-8.19 11.83-12.94 7.69-4.76 18.27-4.76 8.79 0 15.19 3.43t9.91 9.48q3.5 6.04 3.5 13.97" paint-order="stroke"></path><rect width="62.88" height="70.29" x="-31.44" y="-35.15" fill="none" rx="0" ry="0" transform="translate(519.7 385.14)"></rect><path fill="#ff851b" d="M445.336 254.948H108.632L276.984 4.212z"></path><path fill="#fff" d="M332.035 179.201c-1.566-14.299-11.937-28.537-28.462-39.065-16.34-10.407-16.65-20.184-16.65-20.592v-1.263H273.79v110.328c-5.495-3.308-12.293-5.29-19.693-5.29-18.129 0-32.822 11.756-32.822 26.263 0 14.5 14.693 26.26 32.822 26.26 18.123 0 32.825-11.76 32.825-26.26v-94.734a31.365 31.365 0 0 0 9.603 5.117c31.698 10.562 29.747 43.902 23.488 50.17 9.09-9.09 13.25-19.788 12.022-30.934"></path></svg></svg>
